<svg width="81" height="79" xmlns="http://www.w3.org/2000/svg" fill="none">

 <g>
  <title>Layer 1</title>
  <path id="svg_1" fill="#ffffff" d="m62.1848,61.8805c15.8177,-16.2814 14.2458,-36.9216 -4.6271,-50.6887c-18.8729,-13.76706 -65.6889,7.5113 -46.7324,41.816c9.0754,16.4233 35.5419,25.1541 51.3595,8.8727z"/>
  <g>
   <path stroke-linejoin="round" stroke-linecap="round" stroke-width="2.75" stroke="#0C1727" d="m37.95999,42.25005c4.0501,0 7.3334,-3.2833 7.3334,-7.3334c0,-4.0501 -3.2833,-7.3333 -7.3334,-7.3333c-4.0501,0 -7.3333,3.2832 -7.3333,7.3333c0,4.0501 3.2832,7.3334 7.3333,7.3334z"/>
   <path stroke-linejoin="round" stroke-linecap="round" stroke-width="2.75" stroke="#0C1727" d="m28.33499,45.91665c1.5472,1.3439 3.3584,2.3493 5.3173,2.9516c1.9589,0.6023 4.0221,0.7882 6.057,0.5458c2.035,-0.2425 3.9968,-0.908 5.7593,-1.9537c1.7625,-1.0457 3.2868,-2.4485 4.4749,-4.1183c1.1882,-1.6698 2.0139,-3.5697 2.4241,-5.5776c0.4103,-2.0079 0.3959,-4.0794 -0.042,-6.0814c-0.4379,-2.002 -1.2898,-3.8903 -2.5009,-5.54358c-1.2111,-1.65324 -2.7546,-3.03487 -4.5314,-4.05612"/>
   <path stroke-linejoin="round" stroke-linecap="round" stroke-width="2.75" stroke="#0C1727" d="m37.95999,49.58335l0,7.3333"/>
   <path stroke-linejoin="round" stroke-linecap="round" stroke-width="2.75" stroke="#0C1727" d="m30.62669,56.91665l14.6667,0"/>
  </g>
 </g>
</svg>